ply
format ascii 1.0
comment Generated by PyMesh
element vertex 273
property double x
property double y
property double z
element face 234
property list uchar int vertex_indices
end_header
0.0300444 0.0370871 0.00790556
-0.0901801 0.0166078 0.0276549
-0.10797 0.0051964 0.0378564
-0.0354082 0.00566958 0.039699
0.0646728 0.0146346 0.0317954
0.0963572 0.0322896 0.00951067
-0.00730087 0.0158886 0.0303829
0.0646728 0.0146346 0.0317954
-0.0354082 0.00566958 0.039699
-0.051427 -0.00279129 0.0428843
-0.00165212 -0.00293854 0.0422639
0.0887708 0.00297516 0.038631
0.122471 0.0124003 0.0345607
0.0279098 0.00432602 0.0392307
0.0887708 0.00297516 0.038631
-0.00165212 -0.00293854 0.0422639
-0.0160597 -0.0204781 0.045935
0.0305076 -0.0182188 0.0447911
0.112287 -0.00754346 0.0424663
0.141425 9.19881e-05 0.0389528
0.0541462 -0.00476062 0.0427868
0.112287 -0.00754346 0.0424663
0.0305076 -0.0182188 0.0447911
0.0285647 -0.0355432 0.0468671
0.0789466 -0.0352523 0.0463562
0.123981 -0.0235357 0.0440408
0.140448 -0.0127507 0.0425137
0.0777454 -0.0190087 0.0452051
0.123981 -0.0235357 0.0440408
0.0789466 -0.0352523 0.0463562
0.108143 -0.0602297 0.0447197
0.142727 -0.0586308 0.0420098
0.170251 -0.0479378 0.040281
0.163564 -0.030136 0.0415823
0.127302 -0.0371474 0.0437926
0.170251 -0.0479378 0.040281
0.142727 -0.0586308 0.0420098
0.180528 -0.0726634 0.0232188
0.244521 -0.0659731 0.0243763
0.254724 -0.0536028 0.0342907
0.224379 -0.0459545 0.0375022
0.201095 -0.0578688 0.0354335
-0.10797 0.0051964 0.0378564
-0.161924 -0.00918751 0.0411513
-0.162622 -0.0314038 0.0443273
-0.115486 -0.0274559 0.0469398
-0.051427 -0.00279129 0.0428843
-0.0354082 0.00566958 0.039699
-0.112927 -0.00533941 0.0440418
-0.051427 -0.00279129 0.0428843
-0.115486 -0.0274559 0.0469398
-0.114418 -0.0468733 0.0444321
-0.0725418 -0.0458345 0.0445788
-0.0160597 -0.0204781 0.045935
-0.00165212 -0.00293854 0.0422639
-0.0670429 -0.0222064 0.0453767
-0.0160597 -0.0204781 0.045935
-0.0725418 -0.0458345 0.0445788
-0.0656112 -0.0598628 0.038735
-0.0150222 -0.0588514 0.0426735
0.0285647 -0.0355432 0.0468671
0.0305076 -0.0182188 0.0447911
-0.0288002 -0.0427684 0.0454588
0.0285647 -0.0355432 0.0468671
-0.0150222 -0.0588514 0.0426735
0.0276567 -0.0755029 0.0178909
0.0685519 -0.0780263 0.0133952
0.108143 -0.0602297 0.0447197
0.0789466 -0.0352523 0.0463562
0.0488292 -0.0543475 0.0455258
0.108143 -0.0602297 0.0447197
0.0685519 -0.0780263 0.0133952
0.125993 -0.0990545 -0.113831
0.108815 -0.0733428 -0.0548297
0.180528 -0.0726634 0.0232188
0.142727 -0.0586308 0.0420098
0.106825 -0.0795242 0.0190202
-0.245697 -0.0129546 0.0328369
-0.305911 -0.0317624 0.00513056
-0.264987 -0.0434357 -0.0109229
-0.212601 -0.054482 0.0186456
-0.162622 -0.0314038 0.0443273
-0.161924 -0.00918751 0.0411513
-0.226806 -0.0370143 0.0312404
-0.162622 -0.0314038 0.0443273
-0.212601 -0.054482 0.0186456
-0.183994 -0.0615717 0.00141996
-0.147849 -0.0636376 0.0239189
-0.114418 -0.0468733 0.0444321
-0.115486 -0.0274559 0.0469398
-0.155836 -0.0489836 0.0388413
-0.114418 -0.0468733 0.0444321
-0.147849 -0.0636376 0.0239189
-0.10967 -0.0720722 -0.00555373
-0.0676224 -0.0743376 0.00332974
-0.0656112 -0.0598628 0.038735
-0.0725418 -0.0458345 0.0445788
-0.104074 -0.0618541 0.03188
-0.0656112 -0.0598628 0.038735
-0.0676224 -0.0743376 0.00332974
-0.0155834 -0.0708219 -0.0695508
0.0166198 -0.0780626 -0.0748407
0.0276567 -0.0755029 0.0178909
-0.0150222 -0.0588514 0.0426735
-0.0216124 -0.0751484 0.0130521
0.0276567 -0.0755029 0.0178909
0.0166198 -0.0780626 -0.0748407
0.00836358 -0.0746853 -0.186933
0.0822532 -0.0913933 -0.167394
0.125993 -0.0990545 -0.113831
0.0685519 -0.0780263 0.0133952
0.0551982 -0.0880985 -0.111293
0.125993 -0.0990545 -0.113831
0.0822532 -0.0913933 -0.167394
0.105493 -0.0782857 -0.21533
0.0966131 -0.0911562 -0.202736
0.0699564 -0.066434 -0.158968
0.108815 -0.0733428 -0.0548297
0.119708 -0.0750448 -0.175469
-0.264987 -0.0434357 -0.0109229
-0.173534 -0.00767572 -0.0450276
-0.0919825 -0.00928804 -0.0502465
-0.119632 -0.0427927 -0.0467414
-0.183994 -0.0615717 0.00141996
-0.212601 -0.054482 0.0186456
-0.202559 -0.0444864 -0.0317489
-0.183994 -0.0615717 0.00141996
-0.119632 -0.0427927 -0.0467414
-0.0175644 -0.0495968 -0.0663044
-0.0308092 -0.061753 -0.0759509
-0.10967 -0.0720722 -0.00555373
-0.147849 -0.0636376 0.0239189
-0.133673 -0.0678925 -0.026445
-0.10967 -0.0720722 -0.00555373
-0.0308092 -0.061753 -0.0759509
0.00508601 -0.0643489 -0.157698
-0.0160168 -0.0644182 -0.186018
-0.0155834 -0.0708219 -0.0695508
-0.0676224 -0.0743376 0.00332974
-0.0428441 -0.0684423 -0.0758318
-0.0155834 -0.0708219 -0.0695508
-0.0160168 -0.0644182 -0.186018
0.00203876 -0.0613469 -0.279245
0.0156176 -0.0628693 -0.276336
0.00836358 -0.0746853 -0.186933
0.0166198 -0.0780626 -0.0748407
-0.016482 -0.0647901 -0.195421
0.00836358 -0.0746853 -0.186933
0.0156176 -0.0628693 -0.276336
0.0965975 -0.0660985 -0.229485
0.0995008 -0.0804754 -0.197729
0.105493 -0.0782857 -0.21533
0.0822532 -0.0913933 -0.167394
0.0674006 -0.0750176 -0.223713
-0.107504 0.0199199 -0.0313519
-0.0190449 0.0363017 -0.0134321
0.0526092 0.0333585 -0.0164088
0.0126225 0.0187279 -0.0363587
-0.0919825 -0.00928804 -0.0502465
-0.173534 -0.00767572 -0.0450276
-0.0484609 0.0204481 -0.0357433
-0.0919825 -0.00928804 -0.0502465
0.0126225 0.0187279 -0.0363587
0.0689105 0.00812327 -0.0407768
0.0353277 -0.0542063 -0.064286
-0.0175644 -0.0495968 -0.0663044
-0.119632 -0.0427927 -0.0467414
-0.01553 -0.0140857 -0.0530346
-0.0175644 -0.0495968 -0.0663044
0.0353277 -0.0542063 -0.064286
0.0503109 -0.0602198 -0.115609
0.0260848 -0.0622118 -0.178702
0.00508601 -0.0643489 -0.157698
-0.0308092 -0.061753 -0.0759509
0.0269149 -0.0627577 -0.11913
0.00508601 -0.0643489 -0.157698
0.0260848 -0.0622118 -0.178702
0.0348433 -0.0608949 -0.241886
0.0305376 -0.0611 -0.316407
0.00203876 -0.0613469 -0.279245
-0.0160168 -0.0644182 -0.186018
0.0112579 -0.0621739 -0.228908
0.00203876 -0.0613469 -0.279245
0.0305376 -0.0611 -0.316407
0.0918743 -0.0625292 -0.26724
0.100666 -0.0715935 -0.204927
0.0965975 -0.0660985 -0.229485
0.0156176 -0.0628693 -0.276336
0.0423863 -0.0623978 -0.310041
0.0965975 -0.0660985 -0.229485
0.100666 -0.0715935 -0.204927
0.075203 -0.100023 -0.136814
0.0636854 -0.103966 -0.114767
0.0749192 -0.0969609 -0.153344
0.0995008 -0.0804754 -0.197729
0.090099 -0.0879565 -0.169695
0.0526092 0.0333585 -0.0164088
0.146522 0.0398709 0.00592393
0.206088 0.0346315 -0.00424031
0.165014 0.0205838 -0.0330593
0.0689105 0.00812327 -0.0407768
0.0126225 0.0187279 -0.0363587
0.117349 0.0296458 -0.0208787
0.0689105 0.00812327 -0.0407768
0.165014 0.0205838 -0.0330593
0.195677 -0.0129069 -0.0474518
0.0784549 -0.0658917 -0.0785619
0.0503109 -0.0602198 -0.115609
0.0353277 -0.0542063 -0.064286
0.0876046 -0.046566 -0.0575126
0.0503109 -0.0602198 -0.115609
0.0784549 -0.0658917 -0.0785619
0.0926385 -0.0651869 -0.10861
0.0715881 -0.063334 -0.200203
0.0348433 -0.0608949 -0.241886
0.0260848 -0.0622118 -0.178702
0.0565659 -0.061575 -0.170108
0.0348433 -0.0608949 -0.241886
0.0715881 -0.063334 -0.200203
0.0999975 -0.0602854 -0.177219
0.104901 -0.06273 -0.192946
0.0918743 -0.0625292 -0.26724
0.0305376 -0.0611 -0.316407
0.0641897 -0.0619135 -0.275399
0.0918743 -0.0625292 -0.26724
0.104901 -0.06273 -0.192946
0.0923674 -0.0872932 -0.107886
0.071206 -0.107255 -0.0963788
0.075203 -0.100023 -0.136814
0.100666 -0.0715935 -0.204927
0.0902773 -0.0886588 -0.159996
0.173372 0.027682 0.0246503
0.238876 -0.029327 0.0386625
0.277896 -0.0544984 0.0412982
0.276887 -0.0214381 0.020609
0.206088 0.0346315 -0.00424031
0.146522 0.0398709 0.00592393
0.223587 0.0090372 0.0254247
0.206088 0.0346315 -0.00424031
0.276887 -0.0214381 0.020609
0.311121 -0.0428357 0.0108427
0.298997 -0.0266359 -0.0288778
0.195677 -0.0129069 -0.0474518
0.165014 0.0205838 -0.0330593
0.261307 0.00640004 -0.0171603
0.195677 -0.0129069 -0.0474518
0.298997 -0.0266359 -0.0288778
0.289445 -0.0532676 -0.0328708
0.184026 -0.0666427 -0.052124
0.0926385 -0.0651869 -0.10861
0.0784549 -0.0658917 -0.0785619
0.193594 -0.0466306 -0.0499826
0.0926385 -0.0651869 -0.10861
0.184026 -0.0666427 -0.052124
0.168228 -0.0735202 -0.0433578
0.127833 -0.0650478 -0.0681928
0.0999975 -0.0602854 -0.177219
0.0715881 -0.063334 -0.200203
0.10913 -0.06423 -0.10528
0.0999975 -0.0602854 -0.177219
0.127833 -0.0650478 -0.0681928
0.131915 -0.0729759 -0.0425967
0.102529 -0.0927352 -0.0482629
0.0923674 -0.0872932 -0.107886
0.104901 -0.06273 -0.192946
0.107526 -0.0649596 -0.106274
0.0923674 -0.0872932 -0.107886
0.102529 -0.0927352 -0.0482629
0.083793 -0.139472 -0.00124698
0.057944 -0.162858 -0.00374381
0.0535653 -0.13886 -0.03838
0.071206 -0.107255 -0.0963788
0.0731324 -0.124252 -0.0563255
3 0 1 6
3 1 2 6
3 2 3 6
3 3 4 6
3 4 5 6
3 5 0 6
3 7 8 13
3 8 9 13
3 9 10 13
3 10 11 13
3 11 12 13
3 12 7 13
3 14 15 20
3 15 16 20
3 16 17 20
3 17 18 20
3 18 19 20
3 19 14 20
3 21 22 27
3 22 23 27
3 23 24 27
3 24 25 27
3 25 26 27
3 26 21 27
3 28 29 34
3 29 30 34
3 30 31 34
3 31 32 34
3 32 33 34
3 33 28 34
3 35 36 41
3 36 37 41
3 37 38 41
3 38 39 41
3 39 40 41
3 40 35 41
3 42 43 48
3 43 44 48
3 44 45 48
3 45 46 48
3 46 47 48
3 47 42 48
3 49 50 55
3 50 51 55
3 51 52 55
3 52 53 55
3 53 54 55
3 54 49 55
3 56 57 62
3 57 58 62
3 58 59 62
3 59 60 62
3 60 61 62
3 61 56 62
3 63 64 69
3 64 65 69
3 65 66 69
3 66 67 69
3 67 68 69
3 68 63 69
3 70 71 76
3 71 72 76
3 72 73 76
3 73 74 76
3 74 75 76
3 75 70 76
3 77 78 83
3 78 79 83
3 79 80 83
3 80 81 83
3 81 82 83
3 82 77 83
3 84 85 90
3 85 86 90
3 86 87 90
3 87 88 90
3 88 89 90
3 89 84 90
3 91 92 97
3 92 93 97
3 93 94 97
3 94 95 97
3 95 96 97
3 96 91 97
3 98 99 104
3 99 100 104
3 100 101 104
3 101 102 104
3 102 103 104
3 103 98 104
3 105 106 111
3 106 107 111
3 107 108 111
3 108 109 111
3 109 110 111
3 110 105 111
3 112 113 118
3 113 114 118
3 114 115 118
3 115 116 118
3 116 117 118
3 117 112 118
3 119 120 125
3 120 121 125
3 121 122 125
3 122 123 125
3 123 124 125
3 124 119 125
3 126 127 132
3 127 128 132
3 128 129 132
3 129 130 132
3 130 131 132
3 131 126 132
3 133 134 139
3 134 135 139
3 135 136 139
3 136 137 139
3 137 138 139
3 138 133 139
3 140 141 146
3 141 142 146
3 142 143 146
3 143 144 146
3 144 145 146
3 145 140 146
3 147 148 153
3 148 149 153
3 149 150 153
3 150 151 153
3 151 152 153
3 152 147 153
3 154 155 160
3 155 156 160
3 156 157 160
3 157 158 160
3 158 159 160
3 159 154 160
3 161 162 167
3 162 163 167
3 163 164 167
3 164 165 167
3 165 166 167
3 166 161 167
3 168 169 174
3 169 170 174
3 170 171 174
3 171 172 174
3 172 173 174
3 173 168 174
3 175 176 181
3 176 177 181
3 177 178 181
3 178 179 181
3 179 180 181
3 180 175 181
3 182 183 188
3 183 184 188
3 184 185 188
3 185 186 188
3 186 187 188
3 187 182 188
3 189 190 195
3 190 191 195
3 191 192 195
3 192 193 195
3 193 194 195
3 194 189 195
3 196 197 202
3 197 198 202
3 198 199 202
3 199 200 202
3 200 201 202
3 201 196 202
3 203 204 209
3 204 205 209
3 205 206 209
3 206 207 209
3 207 208 209
3 208 203 209
3 210 211 216
3 211 212 216
3 212 213 216
3 213 214 216
3 214 215 216
3 215 210 216
3 217 218 223
3 218 219 223
3 219 220 223
3 220 221 223
3 221 222 223
3 222 217 223
3 224 225 230
3 225 226 230
3 226 227 230
3 227 228 230
3 228 229 230
3 229 224 230
3 231 232 237
3 232 233 237
3 233 234 237
3 234 235 237
3 235 236 237
3 236 231 237
3 238 239 244
3 239 240 244
3 240 241 244
3 241 242 244
3 242 243 244
3 243 238 244
3 245 246 251
3 246 247 251
3 247 248 251
3 248 249 251
3 249 250 251
3 250 245 251
3 252 253 258
3 253 254 258
3 254 255 258
3 255 256 258
3 256 257 258
3 257 252 258
3 259 260 265
3 260 261 265
3 261 262 265
3 262 263 265
3 263 264 265
3 264 259 265
3 266 267 272
3 267 268 272
3 268 269 272
3 269 270 272
3 270 271 272
3 271 266 272
