ply
format ascii 1.0
comment Generated by PyMesh
element vertex 98
property double x
property double y
property double z
element face 84
property list uchar int vertex_indices
end_header
0.0466408 -0.0795846 -0.0187341
-0.081746 0.034146 0.0117901
-0.124631 0.00745153 0.0344756
-0.0057322 0.00766232 0.0380471
0.140537 0.0252057 0.0166938
0.128531 -0.0598005 -0.0392529
0.0496416 0.0340706 0.0149759
0.140537 0.0252057 0.0166938
-0.0057322 0.00766232 0.0380471
-0.042307 -0.00612037 0.0436059
0.036864 -0.00823729 0.0436556
0.170654 -0.000557796 0.0373024
0.209793 0.014669 0.0224657
0.0911053 0.00502349 0.037622
0.170654 -0.000557796 0.0373024
0.036864 -0.00823729 0.0436556
0.0205745 -0.0341618 0.0460887
0.0969731 -0.0321115 0.0453508
0.170041 -0.0253217 0.0415119
0.215106 -0.0139649 0.0381657
0.116733 -0.0109612 0.0436046
0.170041 -0.0253217 0.0415119
0.0969731 -0.0321115 0.0453508
0.129793 -0.0704332 0.0359939
0.22423 -0.0608524 0.0317622
0.23888 -0.0428433 0.036858
0.211184 -0.0380546 0.0396527
0.1694 -0.0459433 0.0406005
-0.124631 0.00745153 0.0344756
-0.228827 -0.0179949 0.0356973
-0.2084 -0.0542875 0.0245092
-0.128036 -0.0456995 0.0442906
-0.042307 -0.00612037 0.0436059
-0.0057322 0.00766232 0.0380471
-0.128373 -0.0100537 0.0448812
-0.042307 -0.00612037 0.0436059
-0.128036 -0.0456995 0.0442906
-0.1056 -0.0687387 0.0238858
-0.0385102 -0.0676452 0.0352173
0.0205745 -0.0341618 0.0460887
0.036864 -0.00823729 0.0436556
-0.0612158 -0.0428533 0.0450489
0.0205745 -0.0341618 0.0460887
-0.0385102 -0.0676452 0.0352173
0.0288454 -0.0811117 -0.0897807
0.123394 -0.100021 -0.117737
0.129793 -0.0704332 0.0359939
0.0969731 -0.0321115 0.0453508
0.0527224 -0.0656728 0.0393124
-0.346919 0.000898885 0.00204817
-0.202355 0.0185413 -0.0151367
-0.0769106 0.0207248 -0.0336749
-0.155064 -0.0276732 -0.0464259
-0.2084 -0.0542875 0.0245092
-0.228827 -0.0179949 0.0356973
-0.280461 -0.0235746 -0.026117
-0.2084 -0.0542875 0.0245092
-0.155064 -0.0276732 -0.0464259
-0.0140389 -0.0370696 -0.0615223
-0.0306817 -0.0625031 -0.0793266
-0.1056 -0.0687387 0.0238858
-0.128036 -0.0456995 0.0442906
-0.162707 -0.0665835 -0.00649609
-0.1056 -0.0687387 0.0238858
-0.0306817 -0.0625031 -0.0793266
0.00486015 -0.0632163 -0.204928
-0.00107024 -0.0606687 -0.259099
0.0288454 -0.0811117 -0.0897807
-0.0385102 -0.0676452 0.0352173
-0.0240858 -0.0708113 -0.0756346
0.0288454 -0.0811117 -0.0897807
-0.00107024 -0.0606687 -0.259099
0.0978219 -0.0651155 -0.235047
0.0921074 -0.090188 -0.187291
0.101027 -0.0783671 -0.202754
0.123394 -0.100021 -0.117737
0.0543534 -0.0814145 -0.205455
-0.0769106 0.0207248 -0.0336749
0.0771765 0.0374518 0.00448879
0.168348 0.0376799 -0.0107
0.0900489 -0.0240561 -0.0507889
-0.0140389 -0.0370696 -0.0615223
-0.155064 -0.0276732 -0.0464259
0.0149949 0.0191904 -0.035754
-0.0140389 -0.0370696 -0.0615223
0.0900489 -0.0240561 -0.0507889
0.0822654 -0.0677008 -0.0838248
0.0452308 -0.0614173 -0.21882
0.00486015 -0.0632163 -0.204928
-0.0306817 -0.0625031 -0.0793266
0.0363533 -0.0616142 -0.132797
0.00486015 -0.0632163 -0.204928
0.0452308 -0.0614173 -0.21882
0.0978734 -0.060453 -0.213854
0.0936754 -0.0831541 -0.176612
0.0978219 -0.0651155 -0.235047
-0.00107024 -0.0606687 -0.259099
0.0375089 -0.060399 -0.329708
3 0 1 6
3 1 2 6
3 2 3 6
3 3 4 6
3 4 5 6
3 5 0 6
3 7 8 13
3 8 9 13
3 9 10 13
3 10 11 13
3 11 12 13
3 12 7 13
3 14 15 20
3 15 16 20
3 16 17 20
3 17 18 20
3 18 19 20
3 19 14 20
3 21 22 27
3 22 23 27
3 23 24 27
3 24 25 27
3 25 26 27
3 26 21 27
3 28 29 34
3 29 30 34
3 30 31 34
3 31 32 34
3 32 33 34
3 33 28 34
3 35 36 41
3 36 37 41
3 37 38 41
3 38 39 41
3 39 40 41
3 40 35 41
3 42 43 48
3 43 44 48
3 44 45 48
3 45 46 48
3 46 47 48
3 47 42 48
3 49 50 55
3 50 51 55
3 51 52 55
3 52 53 55
3 53 54 55
3 54 49 55
3 56 57 62
3 57 58 62
3 58 59 62
3 59 60 62
3 60 61 62
3 61 56 62
3 63 64 69
3 64 65 69
3 65 66 69
3 66 67 69
3 67 68 69
3 68 63 69
3 70 71 76
3 71 72 76
3 72 73 76
3 73 74 76
3 74 75 76
3 75 70 76
3 77 78 83
3 78 79 83
3 79 80 83
3 80 81 83
3 81 82 83
3 82 77 83
3 84 85 90
3 85 86 90
3 86 87 90
3 87 88 90
3 88 89 90
3 89 84 90
3 91 92 97
3 92 93 97
3 93 94 97
3 94 95 97
3 95 96 97
3 96 91 97
