ply
format ascii 1.0
comment Generated by PyMesh
element vertex 882
property double x
property double y
property double z
element face 756
property list uchar int vertex_indices
end_header
0.166157 0.042092 0.00900668
0.137832 0.0407263 0.0170815
0.155341 0.0360759 0.0225032
0.189232 0.0302114 0.0241425
0.20865 0.0266673 0.0192193
0.196739 0.0383201 0.0099089
0.181417 0.0369128 0.0197708
0.20865 0.0266673 0.0192193
0.189232 0.0302114 0.0241425
0.195412 0.0217921 0.0273872
0.229547 0.00426897 0.0274542
0.250694 -0.00542389 0.0223468
0.237836 0.00847275 0.0184982
0.21691 0.0154575 0.0238853
0.250694 -0.00542389 0.0223468
0.229547 0.00426897 0.0274542
0.237002 -0.00962922 0.0313362
0.261412 -0.023949 0.0297328
0.279825 -0.0331514 0.0250411
0.282045 -0.0230623 0.0204648
0.259437 -0.0164348 0.0264371
0.279825 -0.0331514 0.0250411
0.261412 -0.023949 0.0297328
0.249665 -0.0367532 0.0333487
0.225245 -0.0451447 0.034356
0.221484 -0.0586256 0.0279951
0.24924 -0.0579465 0.019878
0.26035 -0.0448543 0.0286941
0.155341 0.0360759 0.0225032
0.107492 0.0317449 0.0235739
0.117626 0.0259875 0.026583
0.169812 0.02226 0.0292457
0.195412 0.0217921 0.0273872
0.189232 0.0302114 0.0241425
0.16657 0.0305017 0.0261095
0.195412 0.0217921 0.0273872
0.169812 0.02226 0.0292457
0.174136 0.011668 0.0328155
0.214604 -0.00441014 0.0346069
0.237002 -0.00962922 0.0313362
0.229547 0.00426897 0.0274542
0.203757 0.0105681 0.0302329
0.237002 -0.00962922 0.0313362
0.214604 -0.00441014 0.0346069
0.20759 -0.0210691 0.0401535
0.222478 -0.0308627 0.0391205
0.249665 -0.0367532 0.0333487
0.261412 -0.023949 0.0297328
0.241626 -0.0211915 0.0347889
0.0305068 0.0327815 0.0205636
-0.0255934 0.0281697 0.021353
-0.0185297 0.0247532 0.0249036
0.0464112 0.0226673 0.0274435
0.117626 0.0259875 0.026583
0.107492 0.0317449 0.0235739
0.0416484 0.0279156 0.024672
0.117626 0.0259875 0.026583
0.0464112 0.0226673 0.0274435
0.0385121 0.0153972 0.0317752
0.13174 0.00825979 0.0339684
0.174136 0.011668 0.0328155
0.169812 0.02226 0.0292457
0.126788 0.0191923 0.029561
0.174136 0.011668 0.0328155
0.13174 0.00825979 0.0339684
0.117701 -0.0090637 0.0413717
0.16323 -0.0260769 0.0419199
0.20759 -0.0210691 0.0401535
0.214604 -0.00441014 0.0346069
0.173541 -0.00662307 0.0373064
0.20759 -0.0210691 0.0401535
0.16323 -0.0260769 0.0419199
0.0959805 -0.033141 0.046045
0.109821 -0.0403645 0.0468707
0.156571 -0.0398314 0.0447996
0.222478 -0.0308627 0.0391205
0.170482 -0.0327368 0.043909
-0.0185297 0.0247532 0.0249036
-0.0797296 0.0198218 0.0301825
-0.0962418 0.00688932 0.0365496
-0.0254423 0.00466711 0.0394837
0.0385121 0.0153972 0.0317752
0.0464112 0.0226673 0.0274435
-0.021324 0.018013 0.0314698
0.0385121 0.0153972 0.0317752
-0.0254423 0.00466711 0.0394837
-0.0475055 -0.0125877 0.0451016
0.0051721 -0.00837024 0.0417288
0.117701 -0.0090637 0.0413717
0.13174 0.00825979 0.0339684
0.032665 0.00346872 0.0363461
0.117701 -0.0090637 0.0413717
0.0051721 -0.00837024 0.0417288
-0.0263105 -0.0303515 0.0429305
0.0231039 -0.038297 0.0465905
0.0959805 -0.033141 0.046045
0.16323 -0.0260769 0.0419199
0.0678887 -0.028351 0.0435198
-0.228453 -0.0519327 0.0243825
-0.170938 -0.0633383 0.021149
-0.122082 -0.070134 0.00638939
-0.149129 -0.0699532 -0.0061029
-0.209364 -0.0630534 0.00186458
-0.248742 -0.0508843 0.020309
-0.189601 -0.0638886 0.0141781
-0.209364 -0.0630534 0.00186458
-0.149129 -0.0699532 -0.0061029
-0.10529 -0.071263 -0.0213431
-0.128559 -0.0667401 -0.0303878
-0.181271 -0.0616123 -0.0356868
-0.227477 -0.0580437 -0.021303
-0.164022 -0.066759 -0.0218196
-0.181271 -0.0616123 -0.0356868
-0.128559 -0.0667401 -0.0303878
-0.0958411 -0.0655471 -0.0359589
-0.101161 -0.051219 -0.0402863
-0.137278 -0.0391768 -0.0428126
-0.184345 -0.0463014 -0.0428377
-0.143901 -0.0570114 -0.0381616
-0.137278 -0.0391768 -0.0428126
-0.101161 -0.051219 -0.0402863
-0.011457 -0.0542002 -0.0472693
0.11788 -0.034613 -0.044372
0.07789 -0.024159 -0.0438132
-0.0418385 -0.0220548 -0.0424251
-0.0653157 -0.0383124 -0.042044
-0.122082 -0.070134 0.00638939
-0.0316228 -0.0760591 0.00361143
0.0036736 -0.0787376 -0.00928964
-0.03178 -0.0772988 -0.021298
-0.10529 -0.071263 -0.0213431
-0.149129 -0.0699532 -0.0061029
-0.0745925 -0.0744862 -0.00883804
-0.10529 -0.071263 -0.0213431
-0.03178 -0.0772988 -0.021298
0.00587838 -0.0784354 -0.0272371
-0.0196014 -0.0745642 -0.0356492
-0.0958411 -0.0655471 -0.0359589
-0.128559 -0.0667401 -0.0303878
-0.0710876 -0.0722984 -0.0288976
-0.0958411 -0.0655471 -0.0359589
-0.0196014 -0.0745642 -0.0356492
0.0651455 -0.0778481 -0.0399773
0.0744221 -0.0717035 -0.0450955
-0.011457 -0.0542002 -0.0472693
-0.101161 -0.051219 -0.0402863
-0.0289133 -0.0653555 -0.0420513
0.00500131 -0.0761168 0.0156674
0.0603553 -0.0828098 0.0170449
0.0784051 -0.0871019 0.00750781
0.0533434 -0.0845519 -0.00557281
0.0036736 -0.0787376 -0.00928964
-0.0316228 -0.0760591 0.00361143
0.0286278 -0.0825824 0.00425464
0.0036736 -0.0787376 -0.00928964
0.0533434 -0.0845519 -0.00557281
0.0926947 -0.0863486 -0.0168997
0.0746826 -0.082645 -0.0344749
0.00587838 -0.0784354 -0.0272371
-0.03178 -0.0772988 -0.021298
0.0271285 -0.0829342 -0.0194458
0.00587838 -0.0784354 -0.0272371
0.0746826 -0.082645 -0.0344749
0.14198 -0.0852971 -0.0229197
0.140781 -0.0766006 -0.0284696
0.0651455 -0.0778481 -0.0399773
-0.0196014 -0.0745642 -0.0356492
0.0639318 -0.0833367 -0.0483175
0.0651455 -0.0778481 -0.0399773
0.140781 -0.0766006 -0.0284696
0.211283 -0.0616811 -0.036003
0.23152 -0.0426687 -0.0385054
0.193156 -0.0443176 -0.0416947
0.0744221 -0.0717035 -0.0450955
0.154438 -0.0674102 -0.0366274
0.0784051 -0.0871019 0.00750781
0.14664 -0.0816554 0.0175617
0.204714 -0.0845644 0.0140568
0.177259 -0.0953009 0.00239096
0.0926947 -0.0863486 -0.0168997
0.0533434 -0.0845519 -0.00557281
0.118512 -0.0880782 0.00538656
0.0926947 -0.0863486 -0.0168997
0.177259 -0.0953009 0.00239096
0.212524 -0.0944868 -0.00297931
0.19502 -0.0863837 -0.0173244
0.14198 -0.0852971 -0.0229197
0.0746826 -0.082645 -0.0344749
0.150689 -0.0921854 -0.00839982
0.14198 -0.0852971 -0.0229197
0.19502 -0.0863837 -0.0173244
0.236044 -0.0704082 -0.0188997
0.241591 -0.0605943 -0.0293741
0.211283 -0.0616811 -0.036003
0.140781 -0.0766006 -0.0284696
0.193418 -0.0730877 -0.0265632
-0.226887 -0.00996882 0.0410012
-0.173824 -0.0174267 0.0443864
-0.166311 -0.0132492 0.0424279
-0.224835 0.000116969 0.0341188
-0.294673 0.01227 0.019049
-0.289796 0.00568331 0.0255178
-0.229811 -0.00454327 0.0376103
-0.294673 0.01227 0.019049
-0.224835 0.000116969 0.0341188
-0.215588 0.0040428 0.0307257
-0.276673 0.0177536 0.0122033
-0.304724 0.0481484 0.0020344
-0.315451 0.0453406 0.000962986
-0.288594 0.0150879 0.0151422
-0.304724 0.0481484 0.0020344
-0.276673 0.0177536 0.0122033
-0.257522 0.0190258 0.00986215
-0.276834 0.0399598 0.00244679
-0.296982 0.0714176 0.00172341
-0.312893 0.0759742 0.00209637
-0.292391 0.0481221 0.0023948
-0.296982 0.0714176 0.00172341
-0.276834 0.0399598 0.00244679
-0.254959 0.0287229 0.00118791
-0.256476 0.0514211 0.000873563
-0.267692 0.0735089 0.000316508
-0.290944 0.0864195 0.00101551
-0.27987 0.0612812 0.00156845
-0.166311 -0.0132492 0.0424279
-0.116688 -0.01521 0.0445012
-0.105321 -0.00886131 0.0431635
-0.13086 -0.0018405 0.0390354
-0.215588 0.0040428 0.0307257
-0.224835 0.000116969 0.0341188
-0.151089 -0.00660524 0.0399978
-0.215588 0.0040428 0.0307257
-0.13086 -0.0018405 0.0390354
-0.11214 0.00200359 0.0388636
-0.171885 0.0112852 0.0290598
-0.257522 0.0190258 0.00986215
-0.276673 0.0177536 0.0122033
-0.198327 0.00768668 0.0290883
-0.257522 0.0190258 0.00986215
-0.171885 0.0112852 0.0290598
-0.131833 0.0182289 0.0294672
-0.195466 0.0228044 0.0131006
-0.254959 0.0287229 0.00118791
-0.276834 0.0399598 0.00244679
-0.232041 0.0213121 0.0104937
-0.0863962 -0.0227723 0.0429177
-0.016879 -0.0238316 0.042597
0.0137673 -0.0187084 0.0434424
-0.0367564 -0.0108655 0.0431591
-0.105321 -0.00886131 0.0431635
-0.116688 -0.01521 0.0445012
-0.0584614 -0.0159567 0.0433998
-0.105321 -0.00886131 0.0431635
-0.0367564 -0.0108655 0.0431591
-0.00150881 -0.00657969 0.04238
-0.048609 -0.00186895 0.0410424
-0.11214 0.00200359 0.0388636
-0.13086 -0.0018405 0.0390354
-0.0808872 -0.00506254 0.0424466
-0.11214 0.00200359 0.0388636
-0.048609 -0.00186895 0.0410424
-0.0161273 0.00345481 0.0389193
-0.057028 0.0101487 0.0366674
-0.131833 0.0182289 0.0294672
-0.171885 0.0112852 0.0290598
-0.0908098 0.00596426 0.0385548
-0.131833 0.0182289 0.0294672
-0.057028 0.0101487 0.0366674
0.0144135 0.018735 0.0348341
-0.0097104 0.0265385 0.0270102
-0.119922 0.0231276 0.0183639
-0.195466 0.0228044 0.0131006
-0.0846866 0.0197374 0.0302432
0.0137673 -0.0187084 0.0434424
0.113213 -0.0202616 0.0430435
0.156427 -0.0162602 0.0425599
0.0978941 -0.0106681 0.0428011
-0.00150881 -0.00657969 0.04238
-0.0367564 -0.0108655 0.0431591
0.0497495 -0.0149682 0.0432838
-0.00150881 -0.00657969 0.04238
0.0978941 -0.0106681 0.0428011
0.14547 -0.00612266 0.0415991
0.087768 0.00290225 0.0390126
-0.0161273 0.00345481 0.0389193
-0.048609 -0.00186895 0.0410424
0.0431669 -0.00282578 0.0406493
-0.0161273 0.00345481 0.0389193
0.087768 0.00290225 0.0390126
0.139674 0.0102851 0.0357006
0.10287 0.018895 0.0343938
0.0144135 0.018735 0.0348341
-0.057028 0.0101487 0.0366674
0.0464304 0.0118424 0.0375458
-0.0151844 0.0121159 -0.0327822
-0.0629488 0.0176394 -0.0301496
-0.0716509 0.0285599 -0.0214162
-0.032235 0.0371618 -0.0136187
0.00621377 0.0333621 -0.0193212
0.0203752 0.0203475 -0.0300112
-0.0277676 0.0250805 -0.0256671
0.00621377 0.0333621 -0.0193212
-0.032235 0.0371618 -0.0136187
-0.0252501 0.0360133 0.00713528
0.0130895 0.0293595 0.0201629
0.0472026 0.0355252 0.0150583
0.0401579 0.0435073 -0.00683988
0.00658152 0.0397941 -0.000962887
0.0472026 0.0355252 0.0150583
0.0130895 0.0293595 0.0201629
0.02818 0.0198185 0.0264582
0.0793708 0.00979735 0.0296026
0.100998 0.0181426 0.0283175
0.0913197 0.0341148 0.0219741
0.0547155 0.0260603 0.0239093
0.100998 0.0181426 0.0283175
0.0793708 0.00979735 0.0296026
0.100793 0.00254772 0.0375181
0.142326 -0.00594412 0.0417112
0.191598 -0.00244896 0.0398132
0.166452 0.00717664 0.0320443
0.145708 0.00711482 0.0344612
-0.0716509 0.0285599 -0.0214162
-0.111192 0.0298371 -0.0151965
-0.097464 0.033974 0.00157891
-0.0560866 0.0311684 0.0137175
-0.0252501 0.0360133 0.00713528
-0.032235 0.0371618 -0.0136187
-0.0689433 0.0352097 -0.0069564
-0.0252501 0.0360133 0.00713528
-0.0560866 0.0311684 0.0137175
-0.0358824 0.0203436 0.0267003
0.00927518 0.0087281 0.0294994
0.02818 0.0198185 0.0264582
0.0130895 0.0293595 0.0201629
-0.015818 0.0245562 0.0239711
0.02818 0.0198185 0.0264582
0.00927518 0.0087281 0.0294994
0.0283423 0.00241638 0.0370431
0.0611951 -0.00598944 0.0405815
0.100793 0.00254772 0.0375181
0.0793708 0.00979735 0.0296026
0.0675696 0.00625883 0.0336734
-0.141241 0.0244184 -0.0204438
-0.166533 0.0296355 -0.00933078
-0.149707 0.0314696 0.00590084
-0.115055 0.0312879 0.0127519
-0.097464 0.033974 0.00157891
-0.111192 0.0298371 -0.0151965
-0.131853 0.0320515 -0.00552934
-0.097464 0.033974 0.00157891
-0.115055 0.0312879 0.0127519
-0.0926957 0.0196913 0.0256488
-0.048799 0.0135061 0.0293472
-0.0358824 0.0203436 0.0267003
-0.0560866 0.0311684 0.0137175
-0.0751747 0.0248421 0.0214071
-0.0358824 0.0203436 0.0267003
-0.048799 0.0135061 0.0293472
-0.0379418 0.00632852 0.0358547
-0.00610906 -0.00379368 0.0403253
0.0283423 0.00241638 0.0370431
0.00927518 0.0087281 0.0294994
-0.00891024 0.00981135 0.0333701
0.0283423 0.00241638 0.0370431
-0.00610906 -0.00379368 0.0403253
0.0101767 -0.0185139 0.04497
0.0344927 -0.0236719 0.0466393
0.0589061 -0.0170729 0.0449121
0.0611951 -0.00598944 0.0405815
0.0264512 -0.0123813 0.0430103
-0.149707 0.0314696 0.00590084
-0.17889 0.026178 0.0133491
-0.166795 0.015777 0.0258162
-0.111536 0.0132322 0.0292839
-0.0926957 0.0196913 0.0256488
-0.115055 0.0312879 0.0127519
-0.130734 0.0237669 0.0206156
-0.0926957 0.0196913 0.0256488
-0.111536 0.0132322 0.0292839
-0.0972453 0.00915924 0.0362162
-0.0575477 -0.000558968 0.0396713
-0.0379418 0.00632852 0.0358547
-0.048799 0.0135061 0.0293472
-0.0652998 0.0155649 0.0318693
-0.0379418 0.00632852 0.0358547
-0.0575477 -0.000558968 0.0396713
-0.0451916 -0.017763 0.0449696
-0.0141035 -0.0249905 0.0464384
0.0101767 -0.0185139 0.04497
-0.00610906 -0.00379368 0.0403253
-0.0240207 -0.0108386 0.0429804
-0.300554 0.0199901 -0.034483
-0.311182 0.0139342 -0.0285949
-0.310982 -0.0123036 -0.0185572
-0.152846 -0.0514615 -0.0391671
-0.0598606 -0.0562103 -0.0434797
-0.269016 -0.0113299 -0.0306333
-0.292667 -0.0107652 -0.0237981
-0.0598606 -0.0562103 -0.0434797
-0.152846 -0.0514615 -0.0391671
0.0237675 -0.0631371 -0.054022
0.0241677 -0.0656692 -0.216781
0.00843095 -0.0625931 -0.262015
0.017764 -0.0646452 -0.191252
0.0329543 -0.0640062 -0.122451
0.00843095 -0.0625931 -0.262015
0.0241677 -0.0656692 -0.216781
0.0201993 -0.0637037 -0.242377
0.0241337 -0.0637401 -0.284487
0.0245121 -0.0651093 -0.310269
0.00806595 -0.0609081 -0.314311
0.0107713 -0.0625629 -0.285354
0.0245121 -0.0651093 -0.310269
0.0241337 -0.0637401 -0.284487
0.0416482 -0.0645886 -0.259711
0.0552641 -0.0636306 -0.236515
0.0576412 -0.061846 -0.249643
0.0440059 -0.0646444 -0.30117
0.0420351 -0.0655999 -0.290972
-0.310982 -0.0123036 -0.0185572
-0.331006 -0.00671701 0.00360094
-0.249271 -0.0421931 0.0123351
-0.05363 -0.0701791 -0.0349969
0.0237675 -0.0631371 -0.054022
-0.152846 -0.0514615 -0.0391671
-0.202044 -0.0494132 -0.0305125
0.0237675 -0.0631371 -0.054022
-0.05363 -0.0701791 -0.0349969
0.056622 -0.0723287 -0.0346382
0.0430235 -0.0648459 -0.164076
0.0201993 -0.0637037 -0.242377
0.0241677 -0.0656692 -0.216781
0.0430792 -0.0650826 -0.150935
0.0201993 -0.0637037 -0.242377
0.0430235 -0.0648459 -0.164076
0.0821133 -0.0662039 -0.0587568
0.0590033 -0.0629727 -0.167449
0.0416482 -0.0645886 -0.259711
0.0241337 -0.0637401 -0.284487
0.0317629 -0.0653118 -0.238892
-0.31264 0.0407105 0.00273992
-0.301987 0.0443725 0.00273638
-0.306528 0.0148659 0.0105725
-0.249457 -0.01966 0.0329047
-0.249271 -0.0421931 0.0123351
-0.331006 -0.00671701 0.00360094
-0.335252 0.00951767 0.00982006
-0.249271 -0.0421931 0.0123351
-0.249457 -0.01966 0.0329047
0.0155995 -0.0392189 0.045171
0.130141 -0.0514992 0.0425678
0.056622 -0.0723287 -0.0346382
-0.05363 -0.0701791 -0.0349969
-0.0526397 -0.0613282 0.0347961
0.056622 -0.0723287 -0.0346382
0.130141 -0.0514992 0.0425678
0.177009 -0.0386499 0.0394108
0.19434 -0.0547017 0.0324543
0.0821133 -0.0662039 -0.0587568
0.0430235 -0.0648459 -0.164076
0.127806 -0.0728577 0.0199493
0.0821133 -0.0662039 -0.0587568
0.19434 -0.0547017 0.0324543
0.23121 -0.0335929 0.0341417
0.232452 -0.0510502 0.0283437
0.124733 -0.0733827 -0.0256996
0.0590033 -0.0629727 -0.167449
0.170144 -0.0729539 0.0186139
-0.306528 0.0148659 0.0105725
-0.258337 0.011072 0.0192335
-0.0261696 -0.0116032 0.0454714
0.088047 -0.0166015 0.0440892
0.0155995 -0.0392189 0.045171
-0.249457 -0.01966 0.0329047
-0.166842 -0.0137544 0.0398259
0.0155995 -0.0392189 0.045171
0.088047 -0.0166015 0.0440892
0.140331 -0.0139962 0.0419216
0.177068 -0.0156035 0.0410815
0.177009 -0.0386499 0.0394108
0.130141 -0.0514992 0.0425678
0.14039 -0.027297 0.0426061
0.177009 -0.0386499 0.0394108
0.177068 -0.0156035 0.0410815
0.192537 -0.0108786 0.0392001
0.225673 -0.0105509 0.0361891
0.23121 -0.0335929 0.0341417
0.19434 -0.0547017 0.0324543
0.201719 -0.0188219 0.0381126
-0.0907577 -0.0318715 0.0458274
0.00683575 -0.0396015 0.0461719
0.0334389 -0.0504832 0.0536828
0.0311002 -0.05327 0.0521621
-0.11883 -0.037427 0.0473488
-0.154034 -0.0240697 0.0439253
-0.0162846 -0.0413975 0.0454689
-0.11883 -0.037427 0.0473488
0.0311002 -0.05327 0.0521621
0.0274698 -0.0598943 0.08111
0.0177945 -0.0602141 0.0742957
-0.122288 -0.047809 0.045659
-0.18551 -0.0357491 0.0450742
0.0160455 -0.0513832 0.0447646
-0.122288 -0.047809 0.045659
0.0177945 -0.0602141 0.0742957
0.0020914 -0.0627619 0.12171
0.00701555 -0.067323 0.094449
-0.130186 -0.0646502 0.0347584
-0.203097 -0.0541163 0.0346384
0.00883119 -0.0613374 0.0456132
-0.130186 -0.0646502 0.0347584
0.00701555 -0.067323 0.094449
0.0106046 -0.0719642 0.143821
0.0647189 -0.0680698 0.0504264
-0.0700619 -0.0788959 0.0245252
-0.182093 -0.0771982 0.0255231
0.0218372 -0.0699316 0.0269085
0.0334389 -0.0504832 0.0536828
0.0578726 -0.0559947 0.0633726
0.0594984 -0.0581927 0.0985705
0.0430502 -0.0615346 0.119926
0.0274698 -0.0598943 0.08111
0.0311002 -0.05327 0.0521621
0.0445262 -0.0577829 0.0778327
0.0274698 -0.0598943 0.08111
0.0430502 -0.0615346 0.119926
0.0302192 -0.0622215 0.168259
0.00714567 -0.0636574 0.183633
0.0020914 -0.0627619 0.12171
0.0177945 -0.0602141 0.0742957
0.021654 -0.0632765 0.124373
0.0020914 -0.0627619 0.12171
0.00714567 -0.0636574 0.183633
0.000867786 -0.0675447 0.226557
0.00629772 -0.0711632 0.173287
0.0106046 -0.0719642 0.143821
0.00701555 -0.067323 0.094449
-0.00419657 -0.0702539 0.188197
0.072049 -0.049545 0.0510317
0.0944777 -0.0534898 0.0488947
0.091441 -0.0636267 0.0822224
0.0692205 -0.0622051 0.114017
0.0594984 -0.0581927 0.0985705
0.0578726 -0.0559947 0.0633726
0.0762874 -0.0613774 0.0693393
0.0594984 -0.0581927 0.0985705
0.0692205 -0.0622051 0.114017
0.0672033 -0.0635743 0.174097
0.0431482 -0.0620634 0.205834
0.0302192 -0.0622215 0.168259
0.0430502 -0.0615346 0.119926
0.0531148 -0.0618905 0.142335
0.0302192 -0.0622215 0.168259
0.0431482 -0.0620634 0.205834
0.0362631 -0.0653105 0.249275
0.0224751 -0.0667243 0.210027
0.000867786 -0.0675447 0.226557
0.00714567 -0.0636574 0.183633
0.0166207 -0.0617493 0.228269
0.000867786 -0.0675447 0.226557
0.0224751 -0.0667243 0.210027
0.0338976 -0.0701032 0.135203
0.0275607 -0.073034 0.114948
0.0236735 -0.0714907 0.124129
0.00629772 -0.0711632 0.173287
0.0172553 -0.0678781 0.158831
0.091441 -0.0636267 0.0822224
0.103741 -0.0681584 0.0879742
0.100853 -0.0685675 0.113684
0.0826862 -0.0682753 0.171085
0.0672033 -0.0635743 0.174097
0.0692205 -0.0622051 0.114017
0.0856975 -0.0664606 0.130865
0.0672033 -0.0635743 0.174097
0.0826862 -0.0682753 0.171085
0.0677744 -0.0673558 0.154347
0.0499559 -0.0691002 0.183904
0.0362631 -0.0653105 0.249275
0.0431482 -0.0620634 0.205834
0.0575726 -0.0658815 0.221388
0.0362631 -0.0653105 0.249275
0.0499559 -0.0691002 0.183904
0.0319367 -0.068002 0.122614
0.0259638 -0.0708631 0.118241
0.0338976 -0.0701032 0.135203
0.0224751 -0.0667243 0.210027
0.0421375 -0.0698532 0.171474
0.149332 -0.0609238 0.0295265
0.116526 -0.0705632 0.0240009
0.068145 -0.0695714 0.0276312
0.0635738 -0.0641958 0.0353445
0.095405 -0.0656535 0.0445705
0.140563 -0.0550998 0.0339136
0.114597 -0.0632533 0.0334283
0.095405 -0.0656535 0.0445705
0.0635738 -0.0641958 0.0353445
-0.000907671 -0.0629155 0.0371021
0.00126186 -0.0636652 0.0886973
0.0328386 -0.0673941 0.142753
0.0671657 -0.0718347 0.100328
0.0473283 -0.0684233 0.0718433
0.0328386 -0.0673941 0.142753
0.00126186 -0.0636652 0.0886973
-0.0253391 -0.0599428 0.0777956
-0.0109567 -0.0641649 0.137515
-0.000752593 -0.0641057 0.216265
0.0163326 -0.0647773 0.204811
0.00334388 -0.064916 0.154037
-0.000752593 -0.0641057 0.216265
-0.0109567 -0.0641649 0.137515
0.000781462 -0.0518444 0.0501461
0.0511034 -0.0421264 0.0442663
0.0725422 -0.0472998 0.0474048
0.0399976 -0.0597283 0.13592
0.0320404 -0.0561894 0.0851175
0.068145 -0.0695714 0.0276312
-0.0156089 -0.0686859 0.0233286
-0.071446 -0.0628668 0.0269669
-0.0605188 -0.0597108 0.0322288
-0.000907671 -0.0629155 0.0371021
0.0635738 -0.0641958 0.0353445
-0.0033697 -0.0638333 0.0286549
-0.000907671 -0.0629155 0.0371021
-0.0605188 -0.0597108 0.0322288
-0.0899651 -0.0546429 0.0351805
-0.068384 -0.051651 0.0386872
-0.0253391 -0.0599428 0.0777956
0.00126186 -0.0636652 0.0886973
-0.0421662 -0.0571339 0.0367299
-0.0253391 -0.0599428 0.0777956
-0.068384 -0.051651 0.0386872
-0.0861358 -0.0455696 0.0409217
-0.0410214 -0.0439188 0.0438669
0.000781462 -0.0518444 0.0501461
-0.0109567 -0.0641649 0.137515
-0.0411159 -0.0556073 0.0581752
-0.0282353 -0.0725673 0.0158724
-0.0785428 -0.071078 0.0184058
-0.120406 -0.0665404 0.0258809
-0.112608 -0.0620101 0.0288644
-0.071446 -0.0628668 0.0269669
-0.0156089 -0.0686859 0.0233286
-0.0761902 -0.0675788 0.0233872
-0.071446 -0.0628668 0.0269669
-0.112608 -0.0620101 0.0288644
-0.136225 -0.0543939 0.0347774
-0.122551 -0.0510565 0.035588
-0.0899651 -0.0546429 0.0351805
-0.0605188 -0.0597108 0.0322288
-0.1026 -0.0575143 0.0314602
-0.0899651 -0.0546429 0.0351805
-0.122551 -0.0510565 0.035588
-0.137044 -0.0442855 0.0402843
-0.124888 -0.0394446 0.0405259
-0.0861358 -0.0455696 0.0409217
-0.068384 -0.051651 0.0386872
-0.109392 -0.0484425 0.0380602
-0.0861358 -0.0455696 0.0409217
-0.124888 -0.0394446 0.0405259
-0.119049 -0.0190386 0.0432897
-0.0670338 -0.0168021 0.0437687
-0.0258572 -0.0299102 0.0443126
-0.0410214 -0.0439188 0.0438669
-0.0850405 -0.0345833 0.043559
-0.120406 -0.0665404 0.0258809
-0.163399 -0.0625596 0.0299522
-0.194392 -0.0546277 0.0323816
-0.169463 -0.0520076 0.0361389
-0.136225 -0.0543939 0.0347774
-0.112608 -0.0620101 0.0288644
-0.149468 -0.058723 0.0325034
-0.136225 -0.0543939 0.0347774
-0.169463 -0.0520076 0.0361389
-0.196202 -0.0423111 0.0396544
-0.175082 -0.036814 0.0420114
-0.137044 -0.0442855 0.0402843
-0.122551 -0.0510565 0.035588
-0.152503 -0.0484815 0.0385807
-0.137044 -0.0442855 0.0402843
-0.175082 -0.036814 0.0420114
-0.196997 -0.000534787 0.0411415
-0.163574 0.00685692 0.0410808
-0.119049 -0.0190386 0.0432897
-0.124888 -0.0394446 0.0405259
-0.157919 -0.0291493 0.043122
0.183893 -0.0645686 -0.0294046
0.134539 -0.0583962 -0.0505461
0.12098 -0.0535497 -0.0524121
0.195925 -0.0491769 -0.0393924
0.233523 -0.0567329 -0.0269397
0.226707 -0.063916 -0.0207163
0.192269 -0.0574275 -0.0349061
0.233523 -0.0567329 -0.0269397
0.195925 -0.0491769 -0.0393924
0.196419 -0.0372363 -0.0425072
0.239583 -0.0382898 -0.0353587
0.278121 -0.0514911 -0.0204809
0.27119 -0.0565003 -0.0156993
0.237603 -0.0493889 -0.032084
0.278121 -0.0514911 -0.0204809
0.239583 -0.0382898 -0.0353587
0.245757 -0.0267062 -0.0358042
0.295933 -0.0277305 -0.0210209
0.328213 -0.0406182 -0.00137581
0.31528 -0.0510674 -0.00401329
0.289901 -0.0395622 -0.0224621
0.328213 -0.0406182 -0.00137581
0.295933 -0.0277305 -0.0210209
0.30049 -0.0147913 -0.0126007
0.27768 -0.0165369 0.0191373
0.261917 -0.0207671 0.0262851
0.294055 -0.0329148 0.0220342
0.317131 -0.0280729 0.00775751
0.12098 -0.0535497 -0.0524121
0.0619274 -0.0602726 -0.102646
0.0234851 -0.0613736 -0.0976102
0.0783754 -0.0436771 -0.0521046
0.196419 -0.0372363 -0.0425072
0.195925 -0.0491769 -0.0393924
0.106387 -0.0499653 -0.05098
0.196419 -0.0372363 -0.0425072
0.0783754 -0.0436771 -0.0521046
0.0674181 -0.0305818 -0.0511127
0.191699 -0.01595 -0.0425303
0.245757 -0.0267062 -0.0358042
0.239583 -0.0382898 -0.0353587
0.187436 -0.0262918 -0.0444061
0.245757 -0.0267062 -0.0358042
0.191699 -0.01595 -0.0425303
0.203584 -0.00833294 -0.0378867
0.257375 -0.00465069 -0.0216049
0.30049 -0.0147913 -0.0126007
0.295933 -0.0277305 -0.0210209
0.24856 -0.0150013 -0.0316505
0.0746668 -0.0615616 -0.16929
0.0614552 -0.0660003 -0.213043
0.0235227 -0.0645412 -0.221162
0.0140888 -0.0625671 -0.140632
0.0234851 -0.0613736 -0.0976102
0.0619274 -0.0602726 -0.102646
0.0402382 -0.0604436 -0.164734
0.0234851 -0.0613736 -0.0976102
0.0140888 -0.0625671 -0.140632
-0.0143684 -0.0664645 -0.127103
-0.0271578 -0.0627684 -0.0675389
0.0674181 -0.0305818 -0.0511127
0.0783754 -0.0436771 -0.0521046
0.000169389 -0.062217 -0.0834335
0.0674181 -0.0305818 -0.0511127
-0.0271578 -0.0627684 -0.0675389
-0.011482 -0.0536045 -0.0535034
0.157835 0.000607614 -0.0387118
0.203584 -0.00833294 -0.0378867
0.191699 -0.01595 -0.0425303
0.0827656 -0.0143483 -0.0475063
0.203584 -0.00833294 -0.0378867
0.157835 0.000607614 -0.0387118
0.203413 0.0109829 -0.0276588
0.222495 0.00828931 0.00390537
0.25402 0.00140084 0.00385814
0.257375 -0.00465069 -0.0216049
0.221705 0.00304108 -0.0251221
0.0235227 -0.0645412 -0.221162
0.0749719 -0.0669052 -0.258963
0.0806861 -0.0678057 -0.228748
0.0190022 -0.0637218 -0.18508
-0.0143684 -0.0664645 -0.127103
0.0140888 -0.0625671 -0.140632
-0.00697352 -0.0644094 -0.22243
-0.0143684 -0.0664645 -0.127103
0.0190022 -0.0637218 -0.18508
0.0379761 -0.0625836 -0.134687
0.0276964 -0.0645294 -0.0745289
-0.011482 -0.0536045 -0.0535034
-0.0271578 -0.0627684 -0.0675389
-0.0197787 -0.0663643 -0.101951
-0.011482 -0.0536045 -0.0535034
0.0276964 -0.0645294 -0.0745289
0.0961386 -0.054901 -0.0565033
0.180954 0.00453751 -0.0342235
0.203413 0.0109829 -0.0276588
0.157835 0.000607614 -0.0387118
0.116916 -0.0237895 -0.0431843
0.0771424 -0.0656033 0.20955
0.0552037 -0.0633789 0.220878
0.0562585 -0.0645477 0.184139
0.0879142 -0.0649275 0.147939
0.111268 -0.0688335 0.15834
0.101166 -0.0742149 0.19038
0.0798213 -0.0651763 0.181504
0.111268 -0.0688335 0.15834
0.0879142 -0.0649275 0.147939
0.094196 -0.0624338 0.117172
0.125674 -0.0669271 0.0816739
0.12994 -0.0699221 0.0880066
0.12538 -0.0759508 0.128936
0.117168 -0.0644719 0.12508
0.12994 -0.0699221 0.0880066
0.125674 -0.0669271 0.0816739
0.113741 -0.0641595 -0.10375
0.117559 -0.0682653 -0.149287
0.124149 -0.0880566 -0.159955
0.124806 -0.0916415 -0.121165
0.128863 -0.0724535 -0.11238
0.124149 -0.0880566 -0.159955
0.117559 -0.0682653 -0.149287
0.100776 -0.0680136 -0.173933
0.0966532 -0.0748818 -0.201884
0.0894749 -0.08639 -0.207751
0.103964 -0.102437 -0.197516
0.113125 -0.0826436 -0.19039
0.0562585 -0.0645477 0.184139
0.0365842 -0.0639066 0.180841
0.0237203 -0.0643158 0.130578
0.056178 -0.0607178 0.0999305
0.094196 -0.0624338 0.117172
0.0879142 -0.0649275 0.147939
0.0579647 -0.0640788 0.140242
0.094196 -0.0624338 0.117172
0.056178 -0.0607178 0.0999305
0.0413296 -0.058613 -0.0786086
0.072265 -0.06107 -0.115163
0.113741 -0.0641595 -0.10375
0.125674 -0.0669271 0.0816739
0.0845614 -0.0663246 -0.0527092
0.113741 -0.0641595 -0.10375
0.072265 -0.06107 -0.115163
0.0526264 -0.0628907 -0.188831
0.0674311 -0.0628429 -0.199145
0.100776 -0.0680136 -0.173933
0.117559 -0.0682653 -0.149287
0.0916582 -0.0642091 -0.146581
0.0266612 -0.0627249 0.216809
0.011207 -0.0643825 0.207828
-0.00628476 -0.0657562 0.155996
-0.00466169 -0.063747 0.116118
0.0237203 -0.0643158 0.130578
0.0365842 -0.0639066 0.180841
0.0152899 -0.0668435 0.17362
0.0237203 -0.0643158 0.130578
-0.00466169 -0.063747 0.116118
-0.0179142 -0.0645864 0.0663733
0.00310436 -0.0600561 -0.111816
0.0413296 -0.058613 -0.0786086
0.056178 -0.0607178 0.0999305
0.014731 -0.0611624 0.0861134
0.0413296 -0.058613 -0.0786086
0.00310436 -0.0600561 -0.111816
0.0145146 -0.0622434 -0.209804
0.0333349 -0.062786 -0.250624
0.0526264 -0.0628907 -0.188831
0.072265 -0.06107 -0.115163
0.027868 -0.0619042 -0.163737
0.0526264 -0.0628907 -0.188831
0.0333349 -0.062786 -0.250624
0.0310728 -0.0597945 -0.326833
0.037371 -0.0586071 -0.327046
0.0535377 -0.0608349 -0.273502
0.0674311 -0.0628429 -0.199145
0.0426517 -0.0623795 -0.27142
-0.00628476 -0.0657562 0.155996
-0.0220353 -0.0633265 0.128826
-0.0453789 -0.0614161 0.0827071
-0.0375335 -0.0571112 -0.101342
-0.0179142 -0.0645864 0.0663733
-0.00466169 -0.063747 0.116118
-0.0304333 -0.0617129 0.0977503
-0.0179142 -0.0645864 0.0663733
-0.0375335 -0.0571112 -0.101342
-0.0110364 -0.0581986 -0.191777
0.00980651 -0.0608169 -0.246976
0.0145146 -0.0622434 -0.209804
0.00310436 -0.0600561 -0.111816
-0.00835297 -0.0589858 -0.153778
0.0145146 -0.0622434 -0.209804
0.00980651 -0.0608169 -0.246976
0.0143379 -0.0577682 -0.324055
0.0210915 -0.0549024 -0.343017
0.0310728 -0.0597945 -0.326833
0.0333349 -0.062786 -0.250624
0.0229124 -0.0599589 -0.294336
3 0 1 6
3 1 2 6
3 2 3 6
3 3 4 6
3 4 5 6
3 5 0 6
3 7 8 13
3 8 9 13
3 9 10 13
3 10 11 13
3 11 12 13
3 12 7 13
3 14 15 20
3 15 16 20
3 16 17 20
3 17 18 20
3 18 19 20
3 19 14 20
3 21 22 27
3 22 23 27
3 23 24 27
3 24 25 27
3 25 26 27
3 26 21 27
3 28 29 34
3 29 30 34
3 30 31 34
3 31 32 34
3 32 33 34
3 33 28 34
3 35 36 41
3 36 37 41
3 37 38 41
3 38 39 41
3 39 40 41
3 40 35 41
3 42 43 48
3 43 44 48
3 44 45 48
3 45 46 48
3 46 47 48
3 47 42 48
3 49 50 55
3 50 51 55
3 51 52 55
3 52 53 55
3 53 54 55
3 54 49 55
3 56 57 62
3 57 58 62
3 58 59 62
3 59 60 62
3 60 61 62
3 61 56 62
3 63 64 69
3 64 65 69
3 65 66 69
3 66 67 69
3 67 68 69
3 68 63 69
3 70 71 76
3 71 72 76
3 72 73 76
3 73 74 76
3 74 75 76
3 75 70 76
3 77 78 83
3 78 79 83
3 79 80 83
3 80 81 83
3 81 82 83
3 82 77 83
3 84 85 90
3 85 86 90
3 86 87 90
3 87 88 90
3 88 89 90
3 89 84 90
3 91 92 97
3 92 93 97
3 93 94 97
3 94 95 97
3 95 96 97
3 96 91 97
3 98 99 104
3 99 100 104
3 100 101 104
3 101 102 104
3 102 103 104
3 103 98 104
3 105 106 111
3 106 107 111
3 107 108 111
3 108 109 111
3 109 110 111
3 110 105 111
3 112 113 118
3 113 114 118
3 114 115 118
3 115 116 118
3 116 117 118
3 117 112 118
3 119 120 125
3 120 121 125
3 121 122 125
3 122 123 125
3 123 124 125
3 124 119 125
3 126 127 132
3 127 128 132
3 128 129 132
3 129 130 132
3 130 131 132
3 131 126 132
3 133 134 139
3 134 135 139
3 135 136 139
3 136 137 139
3 137 138 139
3 138 133 139
3 140 141 146
3 141 142 146
3 142 143 146
3 143 144 146
3 144 145 146
3 145 140 146
3 147 148 153
3 148 149 153
3 149 150 153
3 150 151 153
3 151 152 153
3 152 147 153
3 154 155 160
3 155 156 160
3 156 157 160
3 157 158 160
3 158 159 160
3 159 154 160
3 161 162 167
3 162 163 167
3 163 164 167
3 164 165 167
3 165 166 167
3 166 161 167
3 168 169 174
3 169 170 174
3 170 171 174
3 171 172 174
3 172 173 174
3 173 168 174
3 175 176 181
3 176 177 181
3 177 178 181
3 178 179 181
3 179 180 181
3 180 175 181
3 182 183 188
3 183 184 188
3 184 185 188
3 185 186 188
3 186 187 188
3 187 182 188
3 189 190 195
3 190 191 195
3 191 192 195
3 192 193 195
3 193 194 195
3 194 189 195
3 196 197 202
3 197 198 202
3 198 199 202
3 199 200 202
3 200 201 202
3 201 196 202
3 203 204 209
3 204 205 209
3 205 206 209
3 206 207 209
3 207 208 209
3 208 203 209
3 210 211 216
3 211 212 216
3 212 213 216
3 213 214 216
3 214 215 216
3 215 210 216
3 217 218 223
3 218 219 223
3 219 220 223
3 220 221 223
3 221 222 223
3 222 217 223
3 224 225 230
3 225 226 230
3 226 227 230
3 227 228 230
3 228 229 230
3 229 224 230
3 231 232 237
3 232 233 237
3 233 234 237
3 234 235 237
3 235 236 237
3 236 231 237
3 238 239 244
3 239 240 244
3 240 241 244
3 241 242 244
3 242 243 244
3 243 238 244
3 245 246 251
3 246 247 251
3 247 248 251
3 248 249 251
3 249 250 251
3 250 245 251
3 252 253 258
3 253 254 258
3 254 255 258
3 255 256 258
3 256 257 258
3 257 252 258
3 259 260 265
3 260 261 265
3 261 262 265
3 262 263 265
3 263 264 265
3 264 259 265
3 266 267 272
3 267 268 272
3 268 269 272
3 269 270 272
3 270 271 272
3 271 266 272
3 273 274 279
3 274 275 279
3 275 276 279
3 276 277 279
3 277 278 279
3 278 273 279
3 280 281 286
3 281 282 286
3 282 283 286
3 283 284 286
3 284 285 286
3 285 280 286
3 287 288 293
3 288 289 293
3 289 290 293
3 290 291 293
3 291 292 293
3 292 287 293
3 294 295 300
3 295 296 300
3 296 297 300
3 297 298 300
3 298 299 300
3 299 294 300
3 301 302 307
3 302 303 307
3 303 304 307
3 304 305 307
3 305 306 307
3 306 301 307
3 308 309 314
3 309 310 314
3 310 311 314
3 311 312 314
3 312 313 314
3 313 308 314
3 315 316 321
3 316 317 321
3 317 318 321
3 318 319 321
3 319 320 321
3 320 315 321
3 322 323 328
3 323 324 328
3 324 325 328
3 325 326 328
3 326 327 328
3 327 322 328
3 329 330 335
3 330 331 335
3 331 332 335
3 332 333 335
3 333 334 335
3 334 329 335
3 336 337 342
3 337 338 342
3 338 339 342
3 339 340 342
3 340 341 342
3 341 336 342
3 343 344 349
3 344 345 349
3 345 346 349
3 346 347 349
3 347 348 349
3 348 343 349
3 350 351 356
3 351 352 356
3 352 353 356
3 353 354 356
3 354 355 356
3 355 350 356
3 357 358 363
3 358 359 363
3 359 360 363
3 360 361 363
3 361 362 363
3 362 357 363
3 364 365 370
3 365 366 370
3 366 367 370
3 367 368 370
3 368 369 370
3 369 364 370
3 371 372 377
3 372 373 377
3 373 374 377
3 374 375 377
3 375 376 377
3 376 371 377
3 378 379 384
3 379 380 384
3 380 381 384
3 381 382 384
3 382 383 384
3 383 378 384
3 385 386 391
3 386 387 391
3 387 388 391
3 388 389 391
3 389 390 391
3 390 385 391
3 392 393 398
3 393 394 398
3 394 395 398
3 395 396 398
3 396 397 398
3 397 392 398
3 399 400 405
3 400 401 405
3 401 402 405
3 402 403 405
3 403 404 405
3 404 399 405
3 406 407 412
3 407 408 412
3 408 409 412
3 409 410 412
3 410 411 412
3 411 406 412
3 413 414 419
3 414 415 419
3 415 416 419
3 416 417 419
3 417 418 419
3 418 413 419
3 420 421 426
3 421 422 426
3 422 423 426
3 423 424 426
3 424 425 426
3 425 420 426
3 427 428 433
3 428 429 433
3 429 430 433
3 430 431 433
3 431 432 433
3 432 427 433
3 434 435 440
3 435 436 440
3 436 437 440
3 437 438 440
3 438 439 440
3 439 434 440
3 441 442 447
3 442 443 447
3 443 444 447
3 444 445 447
3 445 446 447
3 446 441 447
3 448 449 454
3 449 450 454
3 450 451 454
3 451 452 454
3 452 453 454
3 453 448 454
3 455 456 461
3 456 457 461
3 457 458 461
3 458 459 461
3 459 460 461
3 460 455 461
3 462 463 468
3 463 464 468
3 464 465 468
3 465 466 468
3 466 467 468
3 467 462 468
3 469 470 475
3 470 471 475
3 471 472 475
3 472 473 475
3 473 474 475
3 474 469 475
3 476 477 482
3 477 478 482
3 478 479 482
3 479 480 482
3 480 481 482
3 481 476 482
3 483 484 489
3 484 485 489
3 485 486 489
3 486 487 489
3 487 488 489
3 488 483 489
3 490 491 496
3 491 492 496
3 492 493 496
3 493 494 496
3 494 495 496
3 495 490 496
3 497 498 503
3 498 499 503
3 499 500 503
3 500 501 503
3 501 502 503
3 502 497 503
3 504 505 510
3 505 506 510
3 506 507 510
3 507 508 510
3 508 509 510
3 509 504 510
3 511 512 517
3 512 513 517
3 513 514 517
3 514 515 517
3 515 516 517
3 516 511 517
3 518 519 524
3 519 520 524
3 520 521 524
3 521 522 524
3 522 523 524
3 523 518 524
3 525 526 531
3 526 527 531
3 527 528 531
3 528 529 531
3 529 530 531
3 530 525 531
3 532 533 538
3 533 534 538
3 534 535 538
3 535 536 538
3 536 537 538
3 537 532 538
3 539 540 545
3 540 541 545
3 541 542 545
3 542 543 545
3 543 544 545
3 544 539 545
3 546 547 552
3 547 548 552
3 548 549 552
3 549 550 552
3 550 551 552
3 551 546 552
3 553 554 559
3 554 555 559
3 555 556 559
3 556 557 559
3 557 558 559
3 558 553 559
3 560 561 566
3 561 562 566
3 562 563 566
3 563 564 566
3 564 565 566
3 565 560 566
3 567 568 573
3 568 569 573
3 569 570 573
3 570 571 573
3 571 572 573
3 572 567 573
3 574 575 580
3 575 576 580
3 576 577 580
3 577 578 580
3 578 579 580
3 579 574 580
3 581 582 587
3 582 583 587
3 583 584 587
3 584 585 587
3 585 586 587
3 586 581 587
3 588 589 594
3 589 590 594
3 590 591 594
3 591 592 594
3 592 593 594
3 593 588 594
3 595 596 601
3 596 597 601
3 597 598 601
3 598 599 601
3 599 600 601
3 600 595 601
3 602 603 608
3 603 604 608
3 604 605 608
3 605 606 608
3 606 607 608
3 607 602 608
3 609 610 615
3 610 611 615
3 611 612 615
3 612 613 615
3 613 614 615
3 614 609 615
3 616 617 622
3 617 618 622
3 618 619 622
3 619 620 622
3 620 621 622
3 621 616 622
3 623 624 629
3 624 625 629
3 625 626 629
3 626 627 629
3 627 628 629
3 628 623 629
3 630 631 636
3 631 632 636
3 632 633 636
3 633 634 636
3 634 635 636
3 635 630 636
3 637 638 643
3 638 639 643
3 639 640 643
3 640 641 643
3 641 642 643
3 642 637 643
3 644 645 650
3 645 646 650
3 646 647 650
3 647 648 650
3 648 649 650
3 649 644 650
3 651 652 657
3 652 653 657
3 653 654 657
3 654 655 657
3 655 656 657
3 656 651 657
3 658 659 664
3 659 660 664
3 660 661 664
3 661 662 664
3 662 663 664
3 663 658 664
3 665 666 671
3 666 667 671
3 667 668 671
3 668 669 671
3 669 670 671
3 670 665 671
3 672 673 678
3 673 674 678
3 674 675 678
3 675 676 678
3 676 677 678
3 677 672 678
3 679 680 685
3 680 681 685
3 681 682 685
3 682 683 685
3 683 684 685
3 684 679 685
3 686 687 692
3 687 688 692
3 688 689 692
3 689 690 692
3 690 691 692
3 691 686 692
3 693 694 699
3 694 695 699
3 695 696 699
3 696 697 699
3 697 698 699
3 698 693 699
3 700 701 706
3 701 702 706
3 702 703 706
3 703 704 706
3 704 705 706
3 705 700 706
3 707 708 713
3 708 709 713
3 709 710 713
3 710 711 713
3 711 712 713
3 712 707 713
3 714 715 720
3 715 716 720
3 716 717 720
3 717 718 720
3 718 719 720
3 719 714 720
3 721 722 727
3 722 723 727
3 723 724 727
3 724 725 727
3 725 726 727
3 726 721 727
3 728 729 734
3 729 730 734
3 730 731 734
3 731 732 734
3 732 733 734
3 733 728 734
3 735 736 741
3 736 737 741
3 737 738 741
3 738 739 741
3 739 740 741
3 740 735 741
3 742 743 748
3 743 744 748
3 744 745 748
3 745 746 748
3 746 747 748
3 747 742 748
3 749 750 755
3 750 751 755
3 751 752 755
3 752 753 755
3 753 754 755
3 754 749 755
3 756 757 762
3 757 758 762
3 758 759 762
3 759 760 762
3 760 761 762
3 761 756 762
3 763 764 769
3 764 765 769
3 765 766 769
3 766 767 769
3 767 768 769
3 768 763 769
3 770 771 776
3 771 772 776
3 772 773 776
3 773 774 776
3 774 775 776
3 775 770 776
3 777 778 783
3 778 779 783
3 779 780 783
3 780 781 783
3 781 782 783
3 782 777 783
3 784 785 790
3 785 786 790
3 786 787 790
3 787 788 790
3 788 789 790
3 789 784 790
3 791 792 797
3 792 793 797
3 793 794 797
3 794 795 797
3 795 796 797
3 796 791 797
3 798 799 804
3 799 800 804
3 800 801 804
3 801 802 804
3 802 803 804
3 803 798 804
3 805 806 811
3 806 807 811
3 807 808 811
3 808 809 811
3 809 810 811
3 810 805 811
3 812 813 818
3 813 814 818
3 814 815 818
3 815 816 818
3 816 817 818
3 817 812 818
3 819 820 825
3 820 821 825
3 821 822 825
3 822 823 825
3 823 824 825
3 824 819 825
3 826 827 832
3 827 828 832
3 828 829 832
3 829 830 832
3 830 831 832
3 831 826 832
3 833 834 839
3 834 835 839
3 835 836 839
3 836 837 839
3 837 838 839
3 838 833 839
3 840 841 846
3 841 842 846
3 842 843 846
3 843 844 846
3 844 845 846
3 845 840 846
3 847 848 853
3 848 849 853
3 849 850 853
3 850 851 853
3 851 852 853
3 852 847 853
3 854 855 860
3 855 856 860
3 856 857 860
3 857 858 860
3 858 859 860
3 859 854 860
3 861 862 867
3 862 863 867
3 863 864 867
3 864 865 867
3 865 866 867
3 866 861 867
3 868 869 874
3 869 870 874
3 870 871 874
3 871 872 874
3 872 873 874
3 873 868 874
3 875 876 881
3 876 877 881
3 877 878 881
3 878 879 881
3 879 880 881
3 880 875 881
